#!OML:ASF X:\für Bonn\!DataBase\2005_08_11_Bastian_Final\c3d\Bastian.ASF
:FULLY-SPECIFIED
:DEGREES
636
root 1.41164 1.22337 25.3419 -807.272 -176.047 -717.833
lowerback -2.23958 -2.14574 -3.80816
upperback 3.08733 -2.75194 0.202758
thorax 4.63911 -1.52137 2.164
lowerneck -31.358 -0.916944 -0.168362
upperneck 13.7925 -1.14988 0.333169
head 9.34786 -0.451524 -0.0343165
rclavicle 4.77083e-015 -8.84592e-015
rhumerus -62.8675 54.7519 -109.444
rradius 23.6337
rwrist -10.3776
rhand -14.2939 -7.60989
rfingers 7.12502
rthumb 11.8457 -37.2548
lclavicle 4.77083e-015 -8.84592e-015
lhumerus -46.9406 -43.7623 93.8988
lradius 18.1431
lwrist 21.436
lhand -7.84392 -2.87381
lfingers 7.12502
lthumb 18.059 26.3078
rfemur -14.5923 9.65739 17.7011
rtibia 33.4739
rfoot -12.6644 -26.6328
rtoes 4.59746
lfemur -7.55096 4.90782 -21.6885
ltibia 16.9496
lfoot 2.41741 3.20138
ltoes -26.3816
637
root 1.41162 1.22276 25.3422 -807.249 -176.043 -717.834
lowerback -2.26716 -2.13795 -3.81603
upperback 3.07467 -2.73949 0.202207
thorax 4.64111 -1.51492 2.16794
lowerneck -31.3368 -0.846854 -0.152889
upperneck 13.7312 -1.05743 0.319328
head 9.32224 -0.409207 -0.0263051
rclavicle 5.64548e-014 -2.09718e-014
rhumerus -63.0361 54.8072 -109.596
rradius 23.696
rwrist -10.5535
rhand -14.2741 -7.6346
rfingers 7.12502
rthumb 11.8648 -37.2784
lclavicle 5.64548e-014 -2.09718e-014
lhumerus -46.956 -43.7818 93.9211
lradius 18.146
lwrist 21.5193
lhand -7.83817 -2.86822
lfingers 7.12502
lthumb 18.0645 26.3129
rfemur -14.6229 9.63118 17.6849
rtibia 33.474
rfoot -12.6956 -26.6067
rtoes 4.70765
lfemur -7.57803 4.8904 -21.6961
ltibia 16.9489
lfoot 2.4199 3.20611
ltoes -26.3348
638
root 1.41066 1.22241 25.3424 -807.238 -176.068 -717.824
lowerback -2.28281 -2.14733 -3.7947
upperback 3.0572 -2.75282 0.218464
thorax 4.6324 -1.52052 2.17175
lowerneck -31.2527 -0.774335 -0.154932
upperneck 13.6198 -0.953416 0.302991
head 9.26922 -0.362961 -0.014325
rclavicle -5.56597e-015 9.93923e-017
rhumerus -63.0845 54.8024 -109.593
rradius 23.7318
rwrist -10.5859
rhand -14.2403 -7.64456
rfingers 7.12502
rthumb 11.8974 -37.2865
lclavicle -5.56597e-015 9.93923e-017
lhumerus -46.96 -43.7379 93.9235
lradius 18.1299
lwrist 21.5793
lhand -7.83325 -2.86928
lfingers 7.12502
lthumb 18.0693 26.3114
rfemur -14.6364 9.60466 17.7077
rtibia 33.4734
rfoot -12.6457 -26.6105
rtoes 4.53744
lfemur -7.59262 4.87757 -21.672
ltibia 16.9481
lfoot 2.42588 3.19618
ltoes -26.3053
639
root 1.41046 1.22222 25.3427 -807.216 -176.069 -717.823
lowerback -2.33344 -2.1406 -3.78149
upperback 3.06766 -2.74135 0.204798
thorax 4.66994 -1.51471 2.1488
lowerneck -31.2234 -0.719673 -0.128101
upperneck 13.5248 -0.885922 0.291355
head 9.23039 -0.330761 -0.0113247
rclavicle 5.56597e-015 -7.45443e-015
rhumerus -63.144 54.8302 -109.674
rradius 23.7782
rwrist -10.7325
rhand -14.2585 -7.6744
rfingers 7.12502
rthumb 11.8799 -37.3174
lclavicle 5.56597e-015 -7.45443e-015
lhumerus -46.9417 -43.8214 93.9414
lradius 18.1033
lwrist 21.699
lhand -7.86373 -2.85569
lfingers 7.12502
lthumb 18.0399 26.3277
rfemur -14.6593 9.63084 17.6988
rtibia 33.4745
rfoot -12.6992 -26.6302
rtoes 4.65889
lfemur -7.61768 4.87808 -21.6744
ltibia 16.9492
lfoot 2.43164 3.18044
ltoes -26.2391
640
root 1.4095 1.22224 25.343 -807.193 -176.069 -717.844
lowerback -2.37661 -2.12772 -3.77451
upperback 3.05527 -2.72194 0.202481
thorax 4.67975 -1.50435 2.14252
lowerneck -31.1082 -0.670151 -0.156348
upperneck 13.3954 -0.811633 0.321123
head 9.16675 -0.293811 0.0162716
rclavicle 2.78299e-014 -8.24956e-015
rhumerus -63.1789 54.8019 -109.671
rradius 23.7955
rwrist -10.7803
rhand -14.2374 -7.68572
rfingers 7.12502
rthumb 11.9002 -37.3275
lclavicle 2.78299e-014 -8.24956e-015
lhumerus -46.97 -43.8381 93.9629
lradius 18.1098
lwrist 21.7688
lhand -7.85829 -2.84382
lfingers 7.12502
lthumb 18.0452 26.3391
rfemur -14.6908 9.59568 17.6875
rtibia 33.4756
rfoot -12.6771 -26.5994
rtoes 4.54655
lfemur -7.6404 4.86072 -21.6815
ltibia 16.952
lfoot 2.4183 3.2157
ltoes -26.2579
641
root 1.40901 1.222 25.3425 -807.17 -176.068 -717.834
lowerback -2.42035 -2.13632 -3.76706
upperback 3.05196 -2.73116 0.19542
thorax 4.70108 -1.50855 2.12878
lowerneck -31.0478 -0.601603 -0.123338
upperneck 13.3094 -0.722808 0.279807
head 9.12636 -0.255535 0.0110174
rclavicle -3.33958e-014 -1.39149e-014
rhumerus -63.3256 54.8708 -109.829
rradius 23.8559
rwrist -10.9458
rhand -14.2523 -7.71781
rfingers 7.12502
rthumb 11.8859 -37.3604
lclavicle -3.33958e-014 -1.39149e-014
lhumerus -46.9623 -43.8479 93.9527
lradius 18.1018
lwrist 21.8891
lhand -7.86528 -2.82376
lfingers 7.12502
lthumb 18.0385 26.3598
rfemur -14.719 9.6086 17.676
rtibia 33.4819
rfoot -12.7308 -26.6134
rtoes 4.67082
lfemur -7.66677 4.84841 -21.6866
ltibia 16.9484
lfoot 2.4171 3.22539
ltoes -26.0334
642
root 1.40882 1.22218 25.3428 -807.147 -176.068 -717.835
lowerback -2.46206 -2.13156 -3.77422
upperback 3.04417 -2.72242 0.198935
thorax 4.71663 -1.50435 2.13562
lowerneck -30.9545 -0.571972 -0.167576
upperneck 13.1935 -0.668875 0.310076
head 9.0711 -0.228662 0.0377612
rclavicle -1.66979e-014 5.66536e-015
rhumerus -63.4292 54.8927 -109.899
rradius 23.9207
rwrist -11.0988
rhand -14.224 -7.7584
rfingers 7.12502
rthumb 11.9131 -37.3995
lclavicle -1.66979e-014 5.66536e-015
lhumerus -46.9394 -43.8278 93.9279
lradius 18.0978
lwrist 21.8858
lhand -7.84561 -2.80293
lfingers 7.12502
lthumb 18.0574 26.3788
rfemur -14.748 9.60529 17.6692
rtibia 33.4865
rfoot -12.7293 -26.6138
rtoes 4.59596
lfemur -7.69007 4.83479 -21.6911
ltibia 16.9438
lfoot 2.42057 3.22564
ltoes -26.0033
643
root 1.40796 1.22096 25.3429 -807.137 -176.066 -717.827
lowerback -2.47315 -2.13498 -3.77994
upperback 3.04041 -2.72676 0.210598
thorax 4.72022 -1.50689 2.15023
lowerneck -30.8873 -0.524917 -0.185229
upperneck 13.1048 -0.591821 0.286401
head 9.02912 -0.196362 0.0447259
rclavicle 0 1.8487e-014
rhumerus -63.449 54.8962 -109.883
rradius 23.9401
rwrist -11.1459
rhand -14.2287 -7.74377
rfingers 7.12502
rthumb 11.9086 -37.3851
lclavicle 0 1.8487e-014
lhumerus -46.8964 -43.7777 93.8974
lradius 18.0865
lwrist 21.9216
lhand -7.83033 -2.81019
lfingers 7.12502
lthumb 18.0721 26.3702
rfemur -14.7667 9.58628 17.6621
rtibia 33.4913
rfoot -12.7213 -26.6214
rtoes 4.6404
lfemur -7.70533 4.81811 -21.6968
ltibia 16.9401
lfoot 2.42906 3.22127
ltoes -25.9569
644
root 1.40785 1.22084 25.3434 -807.101 -176.066 -717.838
lowerback -2.5249 -2.12824 -3.77633
upperback 3.0349 -2.71482 0.203149
thorax 4.74254 -1.5006 2.13952
lowerneck -30.8442 -0.486092 -0.173666
upperneck 13.0353 -0.539689 0.270677
head 8.99767 -0.172931 0.0458413
rclavicle 8.74653e-015 -8.05078e-015
rhumerus -63.4736 54.8919 -109.906
rradius 23.9621
rwrist -11.2295
rhand -14.2084 -7.75295
rfingers 7.12502
rthumb 11.9281 -37.3931
lclavicle 8.74653e-015 -8.05078e-015
lhumerus -46.899 -43.8319 93.9165
lradius 18.0612
lwrist 22.0033
lhand -7.85943 -2.81206
lfingers 7.12502
lthumb 18.0441 26.3709
rfemur -14.8072 9.61869 17.6489
rtibia 33.492
rfoot -12.7824 -26.6351
rtoes 4.67718
lfemur -7.74478 4.81818 -21.7016
ltibia 16.942
lfoot 2.42974 3.21289
ltoes -25.9583
645
root 1.40766 1.221 25.3436 -807.078 -176.065 -717.839
lowerback -2.56649 -2.13197 -3.78238
upperback 3.0317 -2.71759 0.20661
thorax 4.76357 -1.50232 2.14475
lowerneck -30.7768 -0.443789 -0.1893
upperneck 12.9397 -0.472496 0.260344
head 8.95339 -0.143189 0.0555579
rclavicle -1.82882e-014 1.18277e-014
rhumerus -63.6495 54.9727 -110.06
rradius 24.0428
rwrist -11.4064
rhand -14.2033 -7.82517
rfingers 7.12502
rthumb 11.933 -37.4651
lclavicle -1.82882e-014 1.18277e-014
lhumerus -46.8351 -43.7635 93.8425
lradius 18.0474
lwrist 21.9864
lhand -7.85064 -2.82735
lfingers 7.12502
lthumb 18.0525 26.3549
rfemur -14.8302 9.60554 17.643
rtibia 33.4951
rfoot -12.7854 -26.6159
rtoes 4.74664
lfemur -7.76712 4.80488 -21.7062
ltibia 16.935
lfoot 2.42109 3.22689
ltoes -25.9764
646
root 1.40698 1.22098 25.3439 -807.057 -176.065 -717.849
lowerback -2.60689 -2.12005 -3.76079
upperback 3.03585 -2.69974 0.187826
thorax 4.7876 -1.49256 2.11292
lowerneck -30.7561 -0.429713 -0.20724
upperneck 12.8888 -0.451336 0.291504
head 8.93227 -0.129908 0.0728639
rclavicle -2.54444e-014 -3.97569e-016
rhumerus -63.5792 54.9279 -110
rradius 24.0449
rwrist -11.4141
rhand -14.1835 -7.82143
rfingers 7.12502
rthumb 11.9522 -37.4602
lclavicle -2.54444e-014 -3.97569e-016
lhumerus -46.8373 -43.8272 93.8366
lradius 18.058
lwrist 22.1187
lhand -7.85084 -2.80986
lfingers 7.12502
lthumb 18.0524 26.3724
rfemur -14.8576 9.57641 17.6353
rtibia 33.498
rfoot -12.7609 -26.6013
rtoes 4.68285
lfemur -7.78413 4.80265 -21.7106
ltibia 16.9267
lfoot 2.42476 3.22484
ltoes -25.9467
647
root 1.40638 1.22 25.3451 -807.034 -176.065 -717.849
lowerback -2.63538 -2.12201 -3.76913
upperback 3.03435 -2.70133 0.202317
thorax 4.80355 -1.49409 2.13139
lowerneck -30.7347 -0.390802 -0.235114
upperneck 12.8567 -0.380506 0.259406
head 8.91744 -0.102196 0.0771842
rclavicle -8.74653e-015 3.27995e-015
rhumerus -63.6448 54.9698 -110.033
rradius 24.0857
rwrist -11.5078
rhand -14.197 -7.84845
rfingers 7.12502
rthumb 11.9392 -37.488
lclavicle -8.74653e-015 3.27995e-015
lhumerus -46.8552 -43.854 93.8946
lradius 18.059
lwrist 22.2134
lhand -7.88993 -2.79923
lfingers 7.12502
lthumb 18.0147 26.3865
rfemur -14.8902 9.57379 17.6218
rtibia 33.5025
rfoot -12.7659 -26.5815
rtoes 4.61865
lfemur -7.80983 4.78669 -21.7164
ltibia 16.9192
lfoot 2.43042 3.24266
ltoes -25.9502
648
root 1.40618 1.21991 25.3454 -807.011 -176.062 -717.85
lowerback -2.67393 -2.11452 -3.75857
upperback 3.0293 -2.68896 0.186855
thorax 4.81804 -1.48709 2.10907
lowerneck -30.6878 -0.372355 -0.228724
upperneck 12.8233 -0.357765 0.257238
head 8.89845 -0.0915216 0.0790425
rclavicle 9.54166e-015 -7.95139e-015
rhumerus -63.6743 54.9536 -110.052
rradius 24.1207
rwrist -11.5488
rhand -14.1482 -7.85393
rfingers 7.12502
rthumb 11.9862 -37.4907
lclavicle 9.54166e-015 -7.95139e-015
lhumerus -46.8122 -43.8375 93.8307
lradius 18.0436
lwrist 22.2433
lhand -7.86706 -2.80835
lfingers 7.12502
lthumb 18.0367 26.3753
rfemur -14.9189 9.56967 17.6125
rtibia 33.5066
rfoot -12.7625 -26.5773
rtoes 4.63806
lfemur -7.83132 4.77204 -21.7234
ltibia 16.9116
lfoot 2.43466 3.24471
ltoes -25.8991
649
root 1.40568 1.21972 25.3456 -806.989 -176.064 -717.851
lowerback -2.71066 -2.11592 -3.74982
upperback 3.0264 -2.68939 0.18626
thorax 4.83549 -1.48702 2.10221
lowerneck -30.6747 -0.354473 -0.243087
upperneck 12.811 -0.322563 0.231756
head 8.89199 -0.0790132 0.0778851
rclavicle 3.97569e-015 -2.16675e-014
rhumerus -63.7351 54.9811 -110.101
rradius 24.1526
rwrist -11.6493
rhand -14.1565 -7.85758
rfingers 7.12502
rthumb 11.9782 -37.4948
lclavicle 3.97569e-015 -2.16675e-014
lhumerus -46.7947 -43.8488 93.8288
lradius 18.0277
lwrist 22.3231
lhand -7.86528 -2.79791
lfingers 7.12502
lthumb 18.0385 26.3856
rfemur -14.9452 9.55103 17.6083
rtibia 33.5076
rfoot -12.7639 -26.5765
rtoes 4.52677
lfemur -7.85498 4.77215 -21.725
ltibia 16.9096
lfoot 2.43833 3.24561
ltoes -25.9203
